<mxfile host="Electron" agent="Mozilla/5.0 (Windows NT 10.0; Win64; x64) AppleWebKit/537.36 (KHTML, like Gecko) draw.io/25.0.2 Chrome/128.0.6613.186 Electron/32.2.5 Safari/537.36" version="25.0.2">
  <diagram name="Page-1" id="uB9UYdlj4fxvpfBrhSeu">
    <mxGraphModel dx="1050" dy="655" grid="1" gridSize="10" guides="1" tooltips="1" connect="1" arrows="1" fold="1" page="1" pageScale="1" pageWidth="850" pageHeight="1100" math="0" shadow="0">
      <root>
        <mxCell id="0" />
        <mxCell id="1" parent="0" />
        <mxCell id="f4pDOosS_z9Pp22LykCa-1" value="" style="rounded=0;whiteSpace=wrap;html=1;" vertex="1" parent="1">
          <mxGeometry x="90" y="80" width="230" height="450" as="geometry" />
        </mxCell>
        <mxCell id="f4pDOosS_z9Pp22LykCa-2" value="&lt;h1 style=&quot;margin-top: 0px;&quot;&gt;&lt;font style=&quot;font-size: 20px;&quot;&gt;Administrator&lt;/font&gt;&lt;/h1&gt;" style="text;html=1;whiteSpace=wrap;overflow=hidden;rounded=0;" vertex="1" parent="1">
          <mxGeometry x="115" y="95" width="180" height="35" as="geometry" />
        </mxCell>
        <mxCell id="f4pDOosS_z9Pp22LykCa-3" value="" style="points=[[0.145,0.145,0],[0.5,0,0],[0.855,0.145,0],[1,0.5,0],[0.855,0.855,0],[0.5,1,0],[0.145,0.855,0],[0,0.5,0]];shape=mxgraph.bpmn.event;html=1;verticalLabelPosition=bottom;labelBackgroundColor=#ffffff;verticalAlign=top;align=center;perimeter=ellipsePerimeter;outlineConnect=0;aspect=fixed;outline=end;symbol=cancel;" vertex="1" parent="1">
          <mxGeometry x="280" y="102.5" width="20" height="20" as="geometry" />
        </mxCell>
        <mxCell id="f4pDOosS_z9Pp22LykCa-4" value="Manage Employees" style="text;html=1;align=left;verticalAlign=middle;whiteSpace=wrap;rounded=0;" vertex="1" parent="1">
          <mxGeometry x="115" y="160" width="175" height="30" as="geometry" />
        </mxCell>
        <mxCell id="f4pDOosS_z9Pp22LykCa-5" value="" style="html=1;verticalLabelPosition=bottom;labelBackgroundColor=#ffffff;verticalAlign=top;shadow=0;dashed=0;strokeWidth=2;shape=mxgraph.ios7.misc.up;strokeColor=#000000;" vertex="1" parent="1">
          <mxGeometry x="283" y="172" width="12" height="6" as="geometry" />
        </mxCell>
        <mxCell id="f4pDOosS_z9Pp22LykCa-8" value="View Employees" style="rounded=1;whiteSpace=wrap;html=1;fillColor=#CCCCCC;strokeColor=#000000;" vertex="1" parent="1">
          <mxGeometry x="130" y="200" width="120" height="30" as="geometry" />
        </mxCell>
        <mxCell id="f4pDOosS_z9Pp22LykCa-9" value="Verify Employees" style="rounded=1;whiteSpace=wrap;html=1;fillColor=#CCCCCC;strokeColor=#000000;" vertex="1" parent="1">
          <mxGeometry x="130" y="240" width="120" height="30" as="geometry" />
        </mxCell>
        <mxCell id="f4pDOosS_z9Pp22LykCa-10" value="Manage Medicines" style="text;html=1;align=left;verticalAlign=middle;whiteSpace=wrap;rounded=0;" vertex="1" parent="1">
          <mxGeometry x="108" y="290" width="175" height="30" as="geometry" />
        </mxCell>
        <mxCell id="f4pDOosS_z9Pp22LykCa-11" value="Manage Lab Tests" style="text;html=1;align=left;verticalAlign=middle;whiteSpace=wrap;rounded=0;" vertex="1" parent="1">
          <mxGeometry x="105" y="330" width="175" height="30" as="geometry" />
        </mxCell>
        <mxCell id="f4pDOosS_z9Pp22LykCa-12" value="Manage Specializations" style="text;html=1;align=left;verticalAlign=middle;whiteSpace=wrap;rounded=0;" vertex="1" parent="1">
          <mxGeometry x="105" y="370" width="175" height="30" as="geometry" />
        </mxCell>
        <mxCell id="f4pDOosS_z9Pp22LykCa-13" value="" style="html=1;verticalLabelPosition=bottom;labelBackgroundColor=#ffffff;verticalAlign=top;shadow=0;dashed=0;strokeWidth=2;shape=mxgraph.ios7.misc.up;strokeColor=#000000;direction=west;" vertex="1" parent="1">
          <mxGeometry x="284" y="302" width="12" height="6" as="geometry" />
        </mxCell>
        <mxCell id="f4pDOosS_z9Pp22LykCa-15" value="" style="html=1;verticalLabelPosition=bottom;labelBackgroundColor=#ffffff;verticalAlign=top;shadow=0;dashed=0;strokeWidth=2;shape=mxgraph.ios7.misc.up;strokeColor=#000000;flipV=1;" vertex="1" parent="1">
          <mxGeometry x="284" y="342" width="12" height="6" as="geometry" />
        </mxCell>
        <mxCell id="f4pDOosS_z9Pp22LykCa-16" value="" style="html=1;verticalLabelPosition=bottom;labelBackgroundColor=#ffffff;verticalAlign=top;shadow=0;dashed=0;strokeWidth=2;shape=mxgraph.ios7.misc.up;strokeColor=#000000;flipV=1;" vertex="1" parent="1">
          <mxGeometry x="284" y="382" width="12" height="6" as="geometry" />
        </mxCell>
        <mxCell id="f4pDOosS_z9Pp22LykCa-17" value="" style="endArrow=classic;html=1;rounded=0;entryX=1;entryY=0.5;entryDx=0;entryDy=0;" edge="1" parent="1" target="f4pDOosS_z9Pp22LykCa-8">
          <mxGeometry width="50" height="50" relative="1" as="geometry">
            <mxPoint x="330" y="190" as="sourcePoint" />
            <mxPoint x="470" y="180" as="targetPoint" />
          </mxGeometry>
        </mxCell>
        <mxCell id="f4pDOosS_z9Pp22LykCa-18" value="Button to redirect user" style="text;html=1;align=center;verticalAlign=middle;whiteSpace=wrap;rounded=0;" vertex="1" parent="1">
          <mxGeometry x="330" y="172" width="70" height="30" as="geometry" />
        </mxCell>
        <mxCell id="f4pDOosS_z9Pp22LykCa-20" value="" style="endArrow=classic;html=1;rounded=0;entryX=1;entryY=0.5;entryDx=0;entryDy=0;entryPerimeter=0;" edge="1" parent="1" target="f4pDOosS_z9Pp22LykCa-5">
          <mxGeometry width="50" height="50" relative="1" as="geometry">
            <mxPoint x="370" y="130" as="sourcePoint" />
            <mxPoint x="420" y="80" as="targetPoint" />
          </mxGeometry>
        </mxCell>
        <mxCell id="f4pDOosS_z9Pp22LykCa-21" value="Open dropdown" style="text;html=1;align=center;verticalAlign=middle;whiteSpace=wrap;rounded=0;" vertex="1" parent="1">
          <mxGeometry x="360" y="120" width="60" height="30" as="geometry" />
        </mxCell>
        <mxCell id="f4pDOosS_z9Pp22LykCa-22" value="Closed dropdown" style="text;html=1;align=center;verticalAlign=middle;whiteSpace=wrap;rounded=0;" vertex="1" parent="1">
          <mxGeometry x="350" y="270" width="60" height="30" as="geometry" />
        </mxCell>
        <mxCell id="f4pDOosS_z9Pp22LykCa-23" value="" style="endArrow=classic;html=1;rounded=0;entryX=0.5;entryY=1;entryDx=0;entryDy=0;entryPerimeter=0;exitX=0;exitY=0.75;exitDx=0;exitDy=0;" edge="1" parent="1" source="f4pDOosS_z9Pp22LykCa-22" target="f4pDOosS_z9Pp22LykCa-13">
          <mxGeometry width="50" height="50" relative="1" as="geometry">
            <mxPoint x="370" y="380" as="sourcePoint" />
            <mxPoint x="420" y="330" as="targetPoint" />
          </mxGeometry>
        </mxCell>
      </root>
    </mxGraphModel>
  </diagram>
</mxfile>
